<?xml version="1.0" encoding="UTF-8" standalone="no"?><!DOCTYPE svg PUBLIC "-//W3C//DTD SVG 1.1//EN" "http://www.w3.org/Graphics/SVG/1.1/DTD/svg11.dtd"><svg width="100%" height="100%" viewBox="0 0 850 807" version="1.1" xmlns="http://www.w3.org/2000/svg" xmlns:xlink="http://www.w3.org/1999/xlink" xml:space="preserve" xmlns:serif="http://www.serif.com/" style="fill-rule:evenodd;clip-rule:evenodd;stroke-linecap:round;"><rect id="MCA-Logo-and-slogan" x="0" y="0" width="849.535" height="806.15" style="fill:#004f43;"/><g><path d="M642.512,212.407c0,2.882 -2.334,5.218 -5.219,5.218c-2.88,-0.001 -5.216,-2.337 -5.216,-5.218l0,-52.359l-189.329,183.045c-2.072,2.003 -5.377,1.944 -7.38,-0.127c-2.003,-2.072 -1.949,-5.376 0.122,-7.38l189.487,-183.193l-58.134,0c-2.88,-0.001 -5.219,-2.337 -5.219,-5.219c0,-2.881 2.339,-5.217 5.219,-5.219l75.668,0l0,70.451Z" style="fill:#fff;fill-rule:nonzero;"/><path d="M480.498,404.003l0,71.576l-52.064,0l0,-71.576c0,-2.874 2.334,-5.209 5.206,-5.209l41.652,0c2.874,0 5.206,2.334 5.206,5.209Z" style="fill:#30a3e6;"/><path d="M561.444,340.459l0,135.125l-52.064,0l0,-135.125c0,-2.873 2.332,-5.206 5.206,-5.206l41.652,0c2.872,0 5.206,2.333 5.206,5.206Z" style="fill:#30a3e6;"/><path d="M642.393,265.359l0,210.224l-52.064,0l0,-210.224c0,-2.873 2.334,-5.206 5.206,-5.206l41.652,0c2.874,0 5.206,2.333 5.206,5.206Z" style="fill:#30a3e6;"/><path d="M214.479,260.835l0,172.211c0,20.175 16.355,36.53 36.53,36.53l140.899,0" style="fill:none;fill-rule:nonzero;stroke:#fff;stroke-width:10.44px;"/><path d="M388.832,139.349c7.734,0 11.602,-0.001 14.625,1.336c3.565,1.575 6.417,4.427 7.991,7.991c1.335,3.024 1.335,6.892 1.335,14.626l0,38.375c0,2.716 -1.514,5.208 -3.924,6.461c-2.411,1.253 -5.318,1.062 -7.54,-0.498c-6.343,-4.402 -14.092,-6.973 -22.455,-6.973c-21.615,0.001 -39.139,17.158 -39.139,38.323c0,21.165 17.524,38.322 39.139,38.323c8.366,0 16.113,-2.571 22.471,-6.95c2.217,-1.553 5.112,-1.744 7.512,-0.496c2.398,1.249 3.904,3.729 3.904,6.434c0.033,8.99 0.033,17.936 0.033,17.936c0,7.734 0,11.602 -1.335,14.626c-1.575,3.564 -4.426,6.415 -7.991,7.991c-3.022,1.337 -6.891,1.335 -14.625,1.335l-36.528,0c-2.555,0 -4.924,1.34 -6.242,3.529c-1.317,2.19 -1.391,4.91 -0.194,7.168c2.751,5.215 4.293,11.135 4.293,17.409c0,21.165 -17.523,38.323 -39.139,38.323c-21.616,0 -39.139,-17.158 -39.139,-38.323c0,-6.274 1.541,-12.194 4.272,-17.42c1.193,-2.251 1.12,-4.962 -0.193,-7.145c-1.313,-2.183 -3.674,-3.518 -6.222,-3.518c-21.876,-0.023 -60.479,-0.023 -60.479,-0.023l0,-130.936c0,-15.47 0.002,-23.205 2.675,-29.252c3.151,-7.129 8.848,-12.825 15.977,-15.977c6.047,-2.673 13.782,-2.675 29.252,-2.675l131.667,0Z" style="fill:#fff;fill-rule:nonzero;"/><path d="M209.124,523.165c0,-1.432 1.161,-2.592 2.592,-2.592l8.563,0c1.052,0 2,0.635 2.399,1.608l12.85,31.351c0.067,0.161 0.225,0.268 0.4,0.268c0.175,0 0.334,-0.107 0.4,-0.268l12.85,-31.351c0.399,-0.973 1.347,-1.608 2.399,-1.608l8.563,0c1.431,0 2.592,1.159 2.592,2.592l0,44.271c0,1.432 -1.161,2.592 -2.592,2.592l-4.957,0c-1.432,0 -2.593,-1.159 -2.593,-2.592l0,-29.354c0,-0.135 -0.11,-0.245 -0.245,-0.245c-0.1,0 -0.19,0.061 -0.227,0.155l-12.084,30.164c-0.394,0.984 -1.348,1.628 -2.407,1.628l-3.395,0c-1.061,0 -2.015,-0.645 -2.408,-1.631l-12.086,-30.284c-0.037,-0.092 -0.127,-0.153 -0.227,-0.153c-0.135,0 -0.245,0.11 -0.245,0.245l0,29.473c0,1.432 -1.161,2.592 -2.593,2.592l-4.957,0c-1.431,0 -2.592,-1.159 -2.592,-2.592l0,-44.271l-0.001,0Zm64.623,46.863c-1.432,0 -2.592,-1.159 -2.592,-2.592l0,-31.907c0,-1.432 1.161,-2.592 2.592,-2.592l5.102,0c1.432,0 2.592,1.159 2.592,2.592l0,31.907c0,1.432 -1.161,2.592 -2.592,2.592l-5.102,0Zm2.575,-41.873c-1.53,0 -2.841,-0.507 -3.936,-1.521c-1.079,-1.03 -1.618,-2.26 -1.618,-3.695c0,-1.414 0.539,-2.63 1.618,-3.644c1.095,-1.032 2.406,-1.547 3.936,-1.547c1.529,0 2.834,0.515 3.912,1.547c1.095,1.014 1.642,2.23 1.642,3.644c0,1.435 -0.547,2.665 -1.642,3.695c-1.078,1.014 -2.382,1.521 -3.912,1.521Zm30.118,42.597c-3.799,0 -7.067,-0.805 -9.804,-2.413c-2.721,-1.626 -4.814,-3.881 -6.278,-6.763c-1.449,-2.88 -2.173,-6.197 -2.173,-9.948c0,-3.799 0.733,-7.13 2.198,-9.997c1.481,-2.882 3.582,-5.127 6.302,-6.738c2.721,-1.626 5.956,-2.439 9.708,-2.439c3.236,0 6.069,0.589 8.5,1.763c2.431,1.175 4.354,2.826 5.772,4.951c0.952,1.427 1.616,3.022 1.994,4.783c0.311,1.45 -0.895,2.701 -2.379,2.701l-4.743,0c-1.286,0 -2.324,-0.968 -2.826,-2.153c-0.378,-0.892 -0.906,-1.664 -1.585,-2.314c-1.159,-1.144 -2.68,-1.715 -4.564,-1.715c-1.594,0 -2.986,0.436 -4.178,1.305c-1.176,0.854 -2.093,2.1 -2.753,3.743c-0.66,1.641 -0.991,3.629 -0.991,5.963c0,2.367 0.322,4.38 0.966,6.039c0.66,1.656 1.586,2.92 2.777,3.789c1.191,0.869 2.583,1.305 4.178,1.305c1.176,0 2.23,-0.242 3.163,-0.724c0.95,-0.484 1.731,-1.185 2.343,-2.102c0.25,-0.372 0.466,-0.772 0.647,-1.203c0.498,-1.185 1.537,-2.153 2.822,-2.153l4.726,0c1.49,0 2.697,1.261 2.38,2.716c-0.379,1.74 -1.03,3.331 -1.954,4.77c-1.368,2.141 -3.26,3.815 -5.675,5.023c-2.414,1.208 -5.272,1.809 -8.572,1.809l-0.001,0Zm25.744,-0.724c-1.432,0 -2.592,-1.159 -2.592,-2.592l0,-31.907c0,-1.432 1.161,-2.592 2.592,-2.592l4.788,0c1.432,0 2.592,1.159 2.592,2.592l0,3.659c0,0.12 0.099,0.219 0.221,0.219c0.098,0 0.184,-0.064 0.213,-0.158c0.681,-2.225 1.8,-3.909 3.357,-5.058c1.594,-1.19 3.429,-1.786 5.506,-1.786c0.516,0 1.071,0.033 1.666,0.097c0.931,0.102 1.57,0.922 1.57,1.858l0,5.494c0,1.017 -0.995,1.789 -2.005,1.656c-0.853,-0.115 -1.633,-0.171 -2.342,-0.171c-1.514,0 -2.866,0.331 -4.057,0.991c-1.176,0.642 -2.109,1.544 -2.801,2.704c-0.676,1.159 -1.014,2.495 -1.014,4.008l0,18.393c0,1.43 -1.161,2.592 -2.592,2.592l-5.103,0Zm40.264,0.724c-3.751,0 -6.995,-0.795 -9.732,-2.39c-2.721,-1.611 -4.821,-3.848 -6.302,-6.712c-1.481,-2.882 -2.221,-6.223 -2.221,-10.022c0,-3.83 0.741,-7.178 2.221,-10.045c1.481,-2.882 3.582,-5.119 6.302,-6.712c2.737,-1.611 5.981,-2.416 9.732,-2.416c3.751,0 6.987,0.805 9.707,2.416c2.737,1.593 4.845,3.83 6.328,6.712c1.481,2.867 2.22,6.215 2.22,10.045c0,3.799 -0.739,7.14 -2.22,10.022c-1.483,2.864 -3.591,5.102 -6.328,6.712c-2.721,1.595 -5.956,2.39 -9.707,2.39Zm0.048,-7.968c1.707,0 3.131,-0.484 4.274,-1.447c1.143,-0.984 2.004,-2.319 2.584,-4.008c0.596,-1.692 0.894,-3.616 0.894,-5.772c0,-2.158 -0.298,-4.082 -0.894,-5.772c-0.579,-1.69 -1.441,-3.027 -2.584,-4.008c-1.143,-0.984 -2.567,-1.473 -4.274,-1.473c-1.722,0 -3.171,0.492 -4.347,1.473c-1.159,0.981 -2.036,2.316 -2.632,4.008c-0.58,1.69 -0.869,3.613 -0.869,5.772c0,2.156 0.289,4.08 0.869,5.772c0.596,1.69 1.473,3.025 2.632,4.008c1.175,0.966 2.624,1.447 4.347,1.447Zm45.412,-17.145c1.435,0 2.594,1.162 2.594,2.592l0,2.979c0,1.43 -1.159,2.592 -2.594,2.592l-17.366,0c-1.432,0 -2.594,-1.162 -2.594,-2.592l0,-2.979c0,-1.432 1.162,-2.592 2.594,-2.592l17.366,0Zm28.118,25.113c-3.799,0 -7.066,-0.805 -9.803,-2.413c-2.722,-1.626 -4.814,-3.881 -6.279,-6.763c-1.447,-2.88 -2.174,-6.197 -2.174,-9.948c0,-3.799 0.734,-7.13 2.197,-9.997c1.483,-2.882 3.583,-5.127 6.304,-6.738c2.722,-1.626 5.958,-2.439 9.706,-2.439c3.236,0 6.07,0.589 8.498,1.763c2.434,1.175 4.358,2.826 5.772,4.951c0.953,1.427 1.618,3.02 1.995,4.781c0.311,1.453 -0.894,2.704 -2.378,2.704l-4.742,0c-1.287,0 -2.327,-0.971 -2.826,-2.153c-0.377,-0.892 -0.905,-1.664 -1.585,-2.314c-1.159,-1.142 -2.681,-1.712 -4.564,-1.712c-1.593,0 -2.987,0.433 -4.177,1.302c-1.177,0.854 -2.095,2.102 -2.752,3.743c-0.663,1.644 -0.991,3.631 -0.991,5.966c0,2.367 0.321,4.378 0.966,6.037c0.66,1.659 1.588,2.923 2.778,3.792c1.19,0.869 2.584,1.302 4.177,1.302c1.175,0 2.23,-0.242 3.165,-0.724c0.948,-0.482 1.73,-1.182 2.342,-2.1c0.247,-0.372 0.464,-0.772 0.642,-1.2c0.502,-1.187 1.539,-2.156 2.826,-2.156l4.725,0c1.491,0 2.699,1.261 2.38,2.716c-0.38,1.74 -1.03,3.328 -1.955,4.768c-1.366,2.143 -3.259,3.815 -5.675,5.023c-2.413,1.208 -5.272,1.812 -8.572,1.812l0,-0.003Zm33.729,-0.023c-2.367,0 -4.475,-0.41 -6.327,-1.233c-1.85,-0.836 -3.315,-2.067 -4.393,-3.692c-1.063,-1.644 -1.595,-3.687 -1.595,-6.134c0,-2.062 0.377,-3.792 1.137,-5.193c0.754,-1.399 1.786,-2.528 3.091,-3.379c1.302,-0.854 2.783,-1.498 4.442,-1.934c1.674,-0.433 3.43,-0.739 5.265,-0.917c2.158,-0.224 3.896,-0.433 5.216,-0.627c1.32,-0.209 2.278,-0.515 2.874,-0.917c0.594,-0.403 0.892,-0.999 0.892,-1.789l0,-0.143c0,-1.532 -0.482,-2.714 -1.447,-3.55c-0.953,-0.838 -2.304,-1.256 -4.057,-1.256c-1.853,0 -3.325,0.41 -4.419,1.231c-0.477,0.349 -0.884,0.739 -1.218,1.167c-0.762,0.971 -1.837,1.804 -3.066,1.705l-4.459,-0.362c-1.56,-0.127 -2.678,-1.616 -2.034,-3.043c0.499,-1.111 1.144,-2.123 1.937,-3.043c1.417,-1.656 3.244,-2.928 5.481,-3.815c2.255,-0.902 4.862,-1.351 7.823,-1.351c2.062,0 4.034,0.24 5.917,0.724c1.901,0.482 3.583,1.231 5.048,2.245c1.481,1.014 2.648,2.319 3.501,3.912c0.854,1.58 1.279,3.471 1.279,5.675l0,22.425c0,1.432 -1.162,2.594 -2.592,2.594l-4.592,0c-1.422,0 -2.574,-1.152 -2.574,-2.574l0,-2.39c0,-0.099 -0.079,-0.181 -0.178,-0.181c-0.069,0 -0.13,0.038 -0.161,0.097c-0.591,1.119 -1.371,2.11 -2.339,2.971c-0.999,0.869 -2.197,1.552 -3.601,2.051c-1.402,0.484 -3.017,0.724 -4.852,0.724l0,0.003Zm2.948,-7.099c1.511,0 2.846,-0.298 4.006,-0.894c1.159,-0.612 2.069,-1.432 2.729,-2.462c0.66,-1.032 0.991,-2.199 0.991,-3.501l0,-2.485c0,-0.624 -0.734,-1.06 -1.33,-0.874c-0.545,0.163 -1.167,0.316 -1.858,0.459c-0.693,0.13 -1.384,0.25 -2.077,0.364c-0.693,0.097 -1.32,0.183 -1.886,0.265c-1.205,0.176 -2.26,0.459 -3.16,0.843c-0.902,0.387 -1.605,0.91 -2.102,1.57c-0.499,0.645 -0.749,1.45 -0.749,2.416c0,1.399 0.507,2.472 1.521,3.211c1.03,0.726 2.334,1.088 3.914,1.088Zm56.138,-22.815c0.507,1.414 -0.632,2.778 -2.133,2.869l-4.383,0.27c-1.295,0.079 -2.398,-0.874 -3.188,-1.898c-0.036,-0.046 -0.071,-0.092 -0.11,-0.138c-0.53,-0.66 -1.233,-1.182 -2.102,-1.57c-0.851,-0.403 -1.873,-0.604 -3.066,-0.604c-1.593,0 -2.938,0.339 -4.031,1.014c-1.096,0.66 -1.641,1.547 -1.641,2.658c0,0.884 0.352,1.633 1.06,2.245c0.708,0.612 1.924,1.103 3.649,1.473l6.712,1.353c3.606,0.739 6.294,1.932 8.063,3.573c1.771,1.644 2.658,3.799 2.658,6.473c0,2.431 -0.716,4.564 -2.148,6.399c-1.419,1.835 -3.366,3.267 -5.843,4.299c-2.464,1.014 -5.308,1.521 -8.527,1.521c-4.908,0 -8.822,-1.022 -11.735,-3.068c-2.105,-1.496 -3.575,-3.382 -4.416,-5.66c-0.525,-1.427 0.627,-2.811 2.146,-2.892l5.063,-0.265c1.282,-0.066 2.347,0.874 3.066,1.937c0.362,0.54 0.823,0.999 1.386,1.376c1.175,0.772 2.681,1.159 4.516,1.159c1.804,0 3.252,-0.347 4.347,-1.04c1.108,-0.708 1.674,-1.618 1.692,-2.729c-0.018,-0.933 -0.413,-1.697 -1.185,-2.293c-0.775,-0.612 -1.965,-1.078 -3.575,-1.399l-6.424,-1.282c-3.621,-0.724 -6.317,-1.98 -8.088,-3.766c-1.753,-1.786 -2.632,-4.064 -2.632,-6.834c0,-2.383 0.645,-4.434 1.932,-6.157c1.305,-1.723 3.129,-3.05 5.479,-3.986c2.367,-0.933 5.137,-1.399 8.31,-1.399c4.684,0 8.371,0.989 11.06,2.969c1.947,1.427 3.31,3.224 4.087,5.392l0.003,0Zm10.557,29.213c-1.432,0 -2.592,-1.162 -2.592,-2.592l0,-31.907c0,-1.432 1.159,-2.592 2.592,-2.592l5.102,0c1.432,0 2.594,1.159 2.594,2.592l0,31.907c0,1.43 -1.162,2.592 -2.594,2.592l-5.102,0Zm2.576,-41.873c-1.529,0 -2.841,-0.507 -3.935,-1.521c-1.08,-1.03 -1.621,-2.263 -1.621,-3.695c0,-1.417 0.54,-2.632 1.621,-3.647c1.093,-1.03 2.406,-1.544 3.935,-1.544c1.529,0 2.834,0.515 3.912,1.544c1.093,1.014 1.644,2.23 1.644,3.647c0,1.432 -0.55,2.665 -1.644,3.695c-1.078,1.014 -2.383,1.521 -3.912,1.521Zm23.645,20.43l0,18.85c0,1.432 -1.159,2.594 -2.592,2.594l-5.102,0c-1.432,0 -2.594,-1.162 -2.594,-2.594l0,-31.904c0,-1.432 1.162,-2.594 2.594,-2.594l4.62,0c1.432,0 2.592,1.162 2.592,2.594l0,3.695c0,0.14 0.115,0.255 0.257,0.255c0.107,0 0.201,-0.066 0.24,-0.163c0.828,-2.079 2.184,-3.731 4.064,-4.956c1.937,-1.272 4.276,-1.906 7.028,-1.906c2.576,0 4.821,0.563 6.738,1.69c1.916,1.126 3.404,2.737 4.467,4.829c1.063,2.077 1.595,4.556 1.595,7.438l0,21.026c0,1.43 -1.162,2.592 -2.594,2.592l-5.102,0c-1.43,0 -2.594,-1.162 -2.594,-2.592l0,-19.191c0.018,-2.268 -0.561,-4.039 -1.735,-5.311c-1.175,-1.289 -2.793,-1.934 -4.854,-1.934c-1.384,0 -2.607,0.298 -3.67,0.894c-1.047,0.596 -1.868,1.465 -2.464,2.609c-0.578,1.126 -0.877,2.485 -0.894,4.08Zm48.726,36.124c-3.333,0 -6.19,-0.459 -8.572,-1.376c-2.367,-0.902 -4.251,-2.133 -5.652,-3.695c-0.736,-0.821 -1.335,-1.697 -1.802,-2.625c-0.678,-1.353 0.354,-2.811 1.853,-3.012l4.717,-0.635c1.185,-0.161 2.299,0.553 3.078,1.458c0.099,0.117 0.206,0.234 0.319,0.347c0.624,0.645 1.455,1.159 2.487,1.547c1.047,0.4 2.316,0.604 3.815,0.604c2.237,0 4.08,-0.548 5.53,-1.644c1.463,-1.078 2.197,-2.89 2.197,-5.433l0,-6.521c0,-0.145 -0.117,-0.265 -0.265,-0.265c-0.102,0 -0.199,0.064 -0.24,0.158c-0.451,0.971 -1.103,1.893 -1.96,2.765c-0.9,0.917 -2.059,1.667 -3.476,2.245c-1.417,0.578 -3.109,0.869 -5.071,0.869c-2.785,0 -5.321,-0.642 -7.607,-1.932c-2.273,-1.305 -4.08,-3.292 -5.433,-5.966c-1.338,-2.688 -2.005,-6.085 -2.005,-10.191c0,-4.2 0.685,-7.711 2.054,-10.527c1.366,-2.818 3.188,-4.926 5.456,-6.327c2.286,-1.402 4.791,-2.102 7.51,-2.102c2.077,0 3.815,0.357 5.216,1.063c1.399,0.693 2.528,1.562 3.382,2.609c0.828,0.984 1.475,1.952 1.939,2.908c0.041,0.082 0.122,0.135 0.214,0.135c0.13,0 0.234,-0.107 0.234,-0.237l0,-3.402c0,-1.432 1.162,-2.592 2.594,-2.592l5.03,0c1.43,0 2.592,1.159 2.592,2.592l0,34.86c0,3.157 -0.775,5.797 -2.319,7.923c-1.544,2.123 -3.685,3.718 -6.422,4.781c-2.722,1.078 -5.851,1.618 -9.395,1.618l0.003,0Zm0.217,-22.94c1.659,0 3.058,-0.41 4.202,-1.231c1.159,-0.838 2.044,-2.028 2.658,-3.575c0.627,-1.562 0.94,-3.427 0.94,-5.601c0,-2.174 -0.306,-4.057 -0.917,-5.652c-0.612,-1.611 -1.498,-2.857 -2.655,-3.743c-1.159,-0.884 -2.569,-1.328 -4.228,-1.328c-1.69,0 -3.114,0.459 -4.273,1.376c-1.159,0.902 -2.036,2.156 -2.632,3.766c-0.596,1.611 -0.894,3.471 -0.894,5.578c0,2.141 0.298,3.993 0.894,5.555c0.612,1.544 1.488,2.744 2.632,3.598c1.159,0.836 2.584,1.254 4.273,1.254l0,0.003Z" style="fill:#fff;fill-rule:nonzero;"/></g><path d="M162.527,668.791c-0.579,0 -1.096,-0.048 -1.549,-0.145c-0.454,-0.087 -0.768,-0.173 -0.941,-0.26l0.869,-3.012c0.83,0.212 1.564,0.288 2.201,0.232c0.637,-0.059 1.202,-0.344 1.694,-0.854c0.502,-0.502 0.96,-1.32 1.375,-2.449l0.637,-1.738l-8.224,-22.353l3.706,0l6.139,17.721l0.232,0l6.139,-17.721l3.706,0l-9.44,25.483c-0.425,1.147 -0.951,2.1 -1.578,2.852c-0.627,0.762 -1.356,1.328 -2.186,1.695c-0.821,0.367 -1.747,0.55 -2.78,0.55Zm26.633,-7.877c-2.008,0 -3.769,-0.479 -5.285,-1.435c-1.506,-0.956 -2.683,-2.291 -3.533,-4.011c-0.84,-1.718 -1.26,-3.726 -1.26,-6.022c0,-2.316 0.42,-4.34 1.26,-6.067c0.85,-1.728 2.027,-3.068 3.533,-4.024c1.515,-0.956 3.277,-1.435 5.285,-1.435c2.008,0 3.764,0.479 5.27,1.435c1.515,0.956 2.693,2.296 3.533,4.024c0.849,1.728 1.274,3.751 1.274,6.067c0,2.296 -0.425,4.304 -1.274,6.022c-0.84,1.72 -2.017,3.055 -3.533,4.011c-1.506,0.956 -3.263,1.435 -5.27,1.435Zm0,-3.071c1.525,0 2.78,-0.39 3.764,-1.172c0.985,-0.782 1.713,-1.809 2.186,-3.083c0.473,-1.274 0.709,-2.655 0.709,-4.141c0,-1.488 -0.236,-2.872 -0.709,-4.156c-0.473,-1.284 -1.202,-2.321 -2.186,-3.111c-0.984,-0.793 -2.239,-1.187 -3.764,-1.187c-1.525,0 -2.78,0.395 -3.765,1.187c-0.985,0.79 -1.713,1.827 -2.186,3.111c-0.473,1.284 -0.709,2.668 -0.709,4.156c0,1.486 0.236,2.867 0.709,4.141c0.473,1.274 1.202,2.301 2.186,3.083c0.984,0.782 2.239,1.172 3.765,1.172Zm27.208,-6.485l0,-13.147l3.417,0l0,22.239l-3.417,0l0,-3.764l-0.232,0c-0.521,1.129 -1.332,2.09 -2.433,2.88c-1.1,0.782 -2.49,1.175 -4.17,1.175c-1.39,0 -2.625,-0.306 -3.706,-0.912c-1.081,-0.619 -1.931,-1.544 -2.548,-2.78c-0.618,-1.246 -0.927,-2.813 -0.927,-4.707l0,-14.13l3.417,0l0,13.898c0,1.623 0.454,2.915 1.361,3.881c0.917,0.966 2.085,1.447 3.504,1.447c0.849,0 1.713,-0.217 2.592,-0.652c0.888,-0.433 1.631,-1.098 2.23,-1.998c0.608,-0.897 0.912,-2.041 0.912,-3.43Zm7.575,9.092l0,-22.239l3.301,0l0,3.359l0.232,0c0.405,-1.101 1.139,-1.993 2.201,-2.678c1.062,-0.685 2.259,-1.03 3.591,-1.03c0.251,0 0.565,0.005 0.941,0.015c0.377,0.01 0.661,0.025 0.854,0.043l0,3.476c-0.116,-0.031 -0.381,-0.074 -0.796,-0.13c-0.405,-0.069 -0.835,-0.102 -1.289,-0.102c-1.081,0 -2.047,0.227 -2.896,0.68c-0.84,0.443 -1.506,1.063 -1.998,1.853c-0.483,0.782 -0.724,1.674 -0.724,2.678l0,14.074l-3.417,0Zm31.472,0.464c-2.085,0 -3.881,-0.492 -5.386,-1.478c-1.506,-0.984 -2.664,-2.339 -3.475,-4.067c-0.811,-1.728 -1.216,-3.703 -1.216,-5.922c0,-2.26 0.415,-4.253 1.245,-5.981c0.84,-1.738 2.008,-3.094 3.504,-4.067c1.506,-0.986 3.263,-1.478 5.27,-1.478c1.564,0 2.973,0.291 4.228,0.869c1.255,0.578 2.283,1.389 3.084,2.434c0.801,1.042 1.298,2.258 1.492,3.647l-3.417,0c-0.261,-1.012 -0.84,-1.911 -1.738,-2.691c-0.888,-0.793 -2.085,-1.187 -3.591,-1.187c-1.332,0 -2.5,0.347 -3.504,1.042c-0.994,0.685 -1.771,1.654 -2.331,2.91c-0.55,1.244 -0.825,2.706 -0.825,4.386c0,1.72 0.27,3.216 0.811,4.49c0.55,1.274 1.322,2.263 2.317,2.966c1.004,0.706 2.182,1.058 3.533,1.058c0.888,0 1.694,-0.153 2.418,-0.464c0.724,-0.308 1.337,-0.752 1.839,-1.33c0.502,-0.581 0.859,-1.274 1.072,-2.084l3.417,0c-0.193,1.312 -0.671,2.495 -1.433,3.547c-0.753,1.042 -1.752,1.87 -2.997,2.49c-1.235,0.606 -2.674,0.912 -4.314,0.912Zm18.184,0.059c-1.409,0 -2.688,-0.268 -3.837,-0.798c-1.149,-0.54 -2.061,-1.317 -2.737,-2.332c-0.676,-1.022 -1.013,-2.258 -1.013,-3.705c0,-1.274 0.251,-2.309 0.753,-3.099c0.502,-0.803 1.173,-1.43 2.013,-1.883c0.84,-0.454 1.766,-0.79 2.78,-1.014c1.023,-0.229 2.051,-0.413 3.084,-0.548c1.351,-0.176 2.447,-0.306 3.287,-0.392c0.85,-0.097 1.467,-0.255 1.853,-0.477c0.396,-0.222 0.594,-0.609 0.594,-1.159l0,-0.115c0,-1.43 -0.391,-2.541 -1.173,-3.331c-0.772,-0.793 -1.945,-1.187 -3.518,-1.187c-1.631,0 -2.91,0.357 -3.837,1.07c-0.927,0.716 -1.578,1.478 -1.955,2.288l-3.243,-1.157c0.579,-1.353 1.351,-2.406 2.317,-3.157c0.975,-0.762 2.037,-1.295 3.185,-1.593c1.158,-0.308 2.297,-0.464 3.417,-0.464c0.714,0 1.535,0.087 2.461,0.26c0.936,0.166 1.839,0.507 2.708,1.03c0.878,0.52 1.607,1.307 2.186,2.36c0.579,1.052 0.869,2.462 0.869,4.228l0,14.653l-3.417,0l0,-3.012l-0.174,0c-0.232,0.484 -0.618,0.999 -1.158,1.549c-0.54,0.55 -1.26,1.019 -2.157,1.404c-0.898,0.387 -1.993,0.581 -3.287,0.581Zm0.521,-3.071c1.351,0 2.49,-0.265 3.417,-0.795c0.936,-0.533 1.641,-1.218 2.114,-2.056c0.483,-0.841 0.724,-1.723 0.724,-2.65l0,-3.127c-0.145,0.173 -0.464,0.331 -0.956,0.477c-0.483,0.135 -1.042,0.257 -1.68,0.362c-0.627,0.097 -1.24,0.183 -1.839,0.26c-0.589,0.069 -1.067,0.127 -1.433,0.176c-0.888,0.115 -1.718,0.303 -2.49,0.563c-0.762,0.252 -1.38,0.632 -1.853,1.144c-0.463,0.502 -0.695,1.187 -0.695,2.056c0,1.187 0.439,2.084 1.317,2.694c0.888,0.599 2.013,0.897 3.374,0.897Zm29.561,-14.711l-3.069,0.869c-0.193,-0.512 -0.478,-1.009 -0.854,-1.491c-0.367,-0.492 -0.869,-0.897 -1.506,-1.216c-0.637,-0.319 -1.453,-0.479 -2.447,-0.479c-1.361,0 -2.495,0.313 -3.402,0.943c-0.898,0.617 -1.347,1.404 -1.347,2.36c0,0.849 0.309,1.519 0.927,2.011c0.618,0.494 1.583,0.905 2.896,1.231l3.301,0.813c1.988,0.482 3.47,1.221 4.445,2.214c0.975,0.984 1.462,2.253 1.462,3.807c0,1.274 -0.367,2.413 -1.1,3.417c-0.724,1.004 -1.737,1.797 -3.041,2.375c-1.303,0.578 -2.819,0.869 -4.546,0.869c-2.268,0 -4.146,-0.492 -5.632,-1.478c-1.487,-0.984 -2.428,-2.421 -2.823,-4.314l3.243,-0.81c0.309,1.198 0.893,2.095 1.752,2.694c0.869,0.599 2.003,0.897 3.402,0.897c1.593,0 2.857,-0.339 3.793,-1.014c0.946,-0.685 1.419,-1.506 1.419,-2.462c0,-0.772 -0.27,-1.417 -0.811,-1.939c-0.541,-0.53 -1.371,-0.928 -2.49,-1.187l-3.707,-0.869c-2.037,-0.482 -3.533,-1.231 -4.488,-2.242c-0.946,-1.024 -1.419,-2.304 -1.419,-3.838c0,-1.256 0.352,-2.365 1.057,-3.331c0.714,-0.966 1.684,-1.723 2.91,-2.273c1.235,-0.55 2.635,-0.826 4.199,-0.826c2.201,0 3.929,0.482 5.183,1.447c1.264,0.966 2.162,2.24 2.693,3.822Zm12.773,17.723c-2.143,0 -3.991,-0.474 -5.545,-1.419c-1.545,-0.956 -2.737,-2.288 -3.576,-3.996c-0.83,-1.718 -1.245,-3.718 -1.245,-5.994c0,-2.278 0.415,-4.286 1.245,-6.024c0.84,-1.748 2.008,-3.109 3.504,-4.082c1.506,-0.986 3.263,-1.478 5.27,-1.478c1.158,0 2.302,0.194 3.432,0.578c1.129,0.387 2.157,1.014 3.084,1.883c0.927,0.859 1.665,1.998 2.215,3.417c0.55,1.419 0.825,3.165 0.825,5.242l0,1.447l-17.143,0l0,-2.953l13.668,0c0,-1.256 -0.251,-2.375 -0.753,-3.359c-0.492,-0.986 -1.197,-1.763 -2.114,-2.332c-0.907,-0.571 -1.979,-0.854 -3.214,-0.854c-1.361,0 -2.539,0.336 -3.533,1.012c-0.985,0.668 -1.742,1.537 -2.273,2.607c-0.531,1.073 -0.796,2.22 -0.796,3.445l0,1.97c0,1.679 0.289,3.104 0.869,4.271c0.589,1.159 1.404,2.041 2.447,2.65c1.042,0.599 2.254,0.897 3.634,0.897c0.898,0 1.709,-0.125 2.433,-0.375c0.734,-0.262 1.366,-0.647 1.897,-1.159c0.531,-0.522 0.941,-1.167 1.231,-1.939l3.301,0.925c-0.348,1.121 -0.931,2.105 -1.752,2.953c-0.821,0.841 -1.834,1.496 -3.041,1.97c-1.207,0.464 -2.563,0.696 -4.069,0.696Zm21.673,7.877l0,-30.579l3.301,0l0,3.532l0.405,0c0.251,-0.385 0.598,-0.879 1.042,-1.475c0.454,-0.609 1.101,-1.149 1.94,-1.623c0.849,-0.482 1.998,-0.724 3.446,-0.724c1.872,0 3.523,0.469 4.952,1.404c1.429,0.938 2.543,2.263 3.345,3.983c0.801,1.718 1.202,3.743 1.202,6.08c0,2.355 -0.401,4.396 -1.202,6.124c-0.801,1.72 -1.911,3.05 -3.33,3.998c-1.419,0.935 -3.055,1.404 -4.908,1.404c-1.429,0 -2.572,-0.237 -3.432,-0.711c-0.859,-0.482 -1.52,-1.027 -1.984,-1.636c-0.463,-0.617 -0.821,-1.129 -1.071,-1.534l-0.29,0l0,11.758l-3.417,0Zm3.359,-19.461c0,1.679 0.246,3.162 0.738,4.447c0.492,1.274 1.211,2.273 2.157,2.997c0.946,0.714 2.104,1.07 3.475,1.07c1.429,0 2.621,-0.375 3.576,-1.129c0.965,-0.762 1.689,-1.786 2.172,-3.068c0.492,-1.295 0.738,-2.732 0.738,-4.317c0,-1.562 -0.241,-2.971 -0.724,-4.228c-0.473,-1.264 -1.192,-2.263 -2.157,-2.997c-0.956,-0.744 -2.157,-1.114 -3.605,-1.114c-1.39,0 -2.558,0.352 -3.504,1.055c-0.946,0.696 -1.66,1.672 -2.143,2.925c-0.483,1.246 -0.724,2.699 -0.724,4.358Zm25.931,11.643c-1.409,0 -2.688,-0.268 -3.837,-0.798c-1.149,-0.54 -2.061,-1.317 -2.737,-2.332c-0.676,-1.022 -1.013,-2.258 -1.013,-3.705c0,-1.274 0.251,-2.309 0.753,-3.099c0.502,-0.803 1.173,-1.43 2.012,-1.883c0.84,-0.454 1.766,-0.79 2.78,-1.014c1.023,-0.229 2.051,-0.413 3.084,-0.548c1.351,-0.176 2.447,-0.306 3.287,-0.392c0.85,-0.097 1.467,-0.255 1.853,-0.477c0.396,-0.222 0.594,-0.609 0.594,-1.159l0,-0.115c0,-1.43 -0.391,-2.541 -1.173,-3.331c-0.772,-0.793 -1.945,-1.187 -3.518,-1.187c-1.631,0 -2.91,0.357 -3.837,1.07c-0.927,0.716 -1.578,1.478 -1.955,2.288l-3.243,-1.157c0.579,-1.353 1.351,-2.406 2.317,-3.157c0.975,-0.762 2.037,-1.295 3.185,-1.593c1.158,-0.308 2.297,-0.464 3.417,-0.464c0.714,0 1.535,0.087 2.461,0.26c0.936,0.166 1.839,0.507 2.708,1.03c0.878,0.52 1.607,1.307 2.186,2.36c0.579,1.052 0.869,2.462 0.869,4.228l0,14.653l-3.417,0l0,-3.012l-0.174,0c-0.232,0.484 -0.618,0.999 -1.158,1.549c-0.54,0.55 -1.26,1.019 -2.157,1.404c-0.898,0.387 -1.993,0.581 -3.287,0.581Zm0.521,-3.071c1.351,0 2.49,-0.265 3.417,-0.795c0.936,-0.533 1.641,-1.218 2.114,-2.056c0.483,-0.841 0.724,-1.723 0.724,-2.65l0,-3.127c-0.145,0.173 -0.464,0.331 -0.956,0.477c-0.483,0.135 -1.042,0.257 -1.68,0.362c-0.627,0.097 -1.24,0.183 -1.839,0.26c-0.589,0.069 -1.067,0.127 -1.433,0.176c-0.888,0.115 -1.718,0.303 -2.49,0.563c-0.762,0.252 -1.38,0.632 -1.853,1.144c-0.463,0.502 -0.695,1.187 -0.695,2.056c0,1.187 0.439,2.084 1.318,2.694c0.888,0.599 2.012,0.897 3.373,0.897Zm13.808,2.548l0,-22.239l3.301,0l0,3.359l0.232,0c0.405,-1.101 1.139,-1.993 2.201,-2.678c1.063,-0.685 2.258,-1.03 3.591,-1.03c0.25,0 0.566,0.005 0.94,0.015c0.377,0.01 0.663,0.025 0.856,0.043l0,3.476c-0.117,-0.031 -0.382,-0.074 -0.798,-0.13c-0.405,-0.069 -0.836,-0.102 -1.289,-0.102c-1.08,0 -2.046,0.227 -2.895,0.68c-0.841,0.443 -1.506,1.063 -1.998,1.853c-0.483,0.782 -0.724,1.674 -0.724,2.678l0,14.074l-3.417,0Zm24.135,-22.239l0,2.895l-11.526,0l0,-2.895l11.526,0Zm-8.165,-5.328l3.415,0l0,21.197c0,0.966 0.14,1.69 0.42,2.171c0.291,0.474 0.657,0.793 1.101,0.956c0.454,0.155 0.933,0.232 1.435,0.232c0.375,0 0.685,-0.018 0.925,-0.059c0.242,-0.046 0.436,-0.087 0.578,-0.115l0.696,3.071c-0.232,0.087 -0.556,0.173 -0.968,0.26c-0.415,0.097 -0.943,0.145 -1.58,0.145c-0.966,0 -1.911,-0.209 -2.836,-0.624c-0.917,-0.415 -1.682,-1.047 -2.288,-1.896c-0.599,-0.849 -0.897,-1.921 -0.897,-3.213l0,-22.124Zm14.622,14.189l0,13.378l-3.417,0l0,-22.239l3.3,0l0,3.473l0.291,0c0.522,-1.129 1.312,-2.036 2.375,-2.722c1.063,-0.696 2.431,-1.042 4.113,-1.042c1.503,0 2.821,0.308 3.952,0.928c1.129,0.606 2.008,1.534 2.635,2.78c0.627,1.233 0.94,2.798 0.94,4.691l0,14.13l-3.417,0l0,-13.901c0,-1.746 -0.454,-3.106 -1.361,-4.082c-0.907,-0.984 -2.153,-1.475 -3.736,-1.475c-1.091,0 -2.064,0.234 -2.925,0.708c-0.849,0.474 -1.519,1.162 -2.011,2.072c-0.494,0.907 -0.739,2.005 -0.739,3.3Zm27.656,13.842c-2.143,0 -3.991,-0.474 -5.545,-1.419c-1.544,-0.956 -2.737,-2.288 -3.575,-3.996c-0.831,-1.718 -1.246,-3.718 -1.246,-5.994c0,-2.278 0.415,-4.286 1.246,-6.024c0.838,-1.748 2.008,-3.109 3.504,-4.082c1.506,-0.986 3.262,-1.478 5.27,-1.478c1.157,0 2.301,0.194 3.43,0.578c1.131,0.387 2.158,1.014 3.086,1.883c0.925,0.859 1.664,1.998 2.214,3.417c0.55,1.419 0.826,3.165 0.826,5.242l0,1.447l-17.142,0l0,-2.953l13.666,0c0,-1.256 -0.25,-2.375 -0.752,-3.359c-0.492,-0.986 -1.198,-1.763 -2.115,-2.332c-0.907,-0.571 -1.977,-0.854 -3.213,-0.854c-1.361,0 -2.538,0.336 -3.534,1.012c-0.984,0.668 -1.74,1.537 -2.273,2.607c-0.53,1.073 -0.795,2.22 -0.795,3.445l0,1.97c0,1.679 0.291,3.104 0.869,4.271c0.589,1.159 1.404,2.041 2.446,2.65c1.042,0.599 2.255,0.897 3.634,0.897c0.897,0 1.71,-0.125 2.434,-0.375c0.734,-0.262 1.366,-0.647 1.896,-1.159c0.53,-0.522 0.94,-1.167 1.231,-1.939l3.3,0.925c-0.347,1.121 -0.93,2.105 -1.751,2.953c-0.821,0.841 -1.835,1.496 -3.04,1.97c-1.208,0.464 -2.564,0.696 -4.07,0.696Zm12.306,-0.464l0,-22.239l3.303,0l0,3.359l0.232,0c0.405,-1.101 1.139,-1.993 2.199,-2.678c1.063,-0.685 2.26,-1.03 3.591,-1.03c0.252,0 0.566,0.005 0.943,0.015c0.377,0.01 0.66,0.025 0.854,0.043l0,3.476c-0.115,-0.031 -0.382,-0.074 -0.795,-0.13c-0.408,-0.069 -0.836,-0.102 -1.289,-0.102c-1.08,0 -2.046,0.227 -2.897,0.68c-0.838,0.443 -1.503,1.063 -1.998,1.853c-0.482,0.782 -0.724,1.674 -0.724,2.678l0,14.074l-3.417,0Zm15.618,-4.054l-0.232,1.565c-0.163,1.101 -0.413,2.278 -0.752,3.532c-0.329,1.256 -0.67,2.439 -1.027,3.547c-0.359,1.111 -0.652,1.993 -0.884,2.65l-2.607,0c0.125,-0.619 0.291,-1.435 0.492,-2.446c0.204,-1.014 0.405,-2.148 0.609,-3.404c0.212,-1.244 0.387,-2.518 0.522,-3.822l0.173,-1.621l3.705,0Zm13.598,4.054l0,-22.239l3.303,0l0,3.359l0.232,0c0.405,-1.101 1.139,-1.993 2.199,-2.678c1.063,-0.685 2.26,-1.03 3.591,-1.03c0.252,0 0.566,0.005 0.943,0.015c0.375,0.01 0.66,0.025 0.854,0.043l0,3.476c-0.117,-0.031 -0.382,-0.074 -0.798,-0.13c-0.405,-0.069 -0.833,-0.102 -1.287,-0.102c-1.083,0 -2.046,0.227 -2.897,0.68c-0.838,0.443 -1.506,1.063 -1.998,1.853c-0.482,0.782 -0.724,1.674 -0.724,2.678l0,14.074l-3.417,0Zm21.719,0.464c-2.143,0 -3.993,-0.474 -5.548,-1.419c-1.544,-0.956 -2.734,-2.288 -3.575,-3.996c-0.831,-1.718 -1.246,-3.718 -1.246,-5.994c0,-2.278 0.415,-4.286 1.246,-6.024c0.841,-1.748 2.008,-3.109 3.504,-4.082c1.506,-0.986 3.262,-1.478 5.27,-1.478c1.159,0 2.304,0.194 3.433,0.578c1.129,0.387 2.156,1.014 3.083,1.883c0.928,0.859 1.664,1.998 2.214,3.417c0.55,1.419 0.826,3.165 0.826,5.242l0,1.447l-17.142,0l0,-2.953l13.669,0c0,-1.256 -0.252,-2.375 -0.754,-3.359c-0.492,-0.986 -1.198,-1.763 -2.113,-2.332c-0.907,-0.571 -1.98,-0.854 -3.216,-0.854c-1.361,0 -2.538,0.336 -3.532,1.012c-0.984,0.668 -1.743,1.537 -2.273,2.607c-0.53,1.073 -0.798,2.22 -0.798,3.445l0,1.97c0,1.679 0.291,3.104 0.869,4.271c0.589,1.159 1.404,2.041 2.446,2.65c1.045,0.599 2.255,0.897 3.636,0.897c0.897,0 1.707,-0.125 2.431,-0.375c0.734,-0.262 1.366,-0.647 1.896,-1.159c0.533,-0.522 0.943,-1.167 1.231,-1.939l3.303,0.925c-0.347,1.121 -0.933,2.105 -1.753,2.953c-0.821,0.841 -1.832,1.496 -3.04,1.97c-1.205,0.464 -2.561,0.696 -4.067,0.696Zm25.047,-14.77l0,3.185l-12.973,0l0,-3.185l12.973,0Zm3.912,14.306l0,-22.239l3.417,0l0,22.239l-3.417,0Zm1.738,-25.947c-0.668,0 -1.241,-0.227 -1.723,-0.68c-0.474,-0.454 -0.711,-0.999 -0.711,-1.636c0,-0.637 0.237,-1.182 0.711,-1.636c0.482,-0.454 1.055,-0.68 1.723,-0.68c0.665,0 1.236,0.227 1.707,0.68c0.484,0.454 0.724,0.999 0.724,1.636c0,0.637 -0.24,1.182 -0.724,1.636c-0.471,0.454 -1.042,0.68 -1.707,0.68Zm5.838,25.947l0,-22.239l3.3,0l0,3.473l0.291,0c0.464,-1.187 1.21,-2.107 2.242,-2.765c1.035,-0.665 2.273,-0.999 3.723,-0.999c1.465,0 2.688,0.334 3.662,0.999c0.984,0.657 1.753,1.577 2.304,2.765l0.229,0c0.571,-1.147 1.424,-2.059 2.564,-2.737c1.139,-0.683 2.505,-1.027 4.098,-1.027c1.988,0 3.616,0.622 4.88,1.868c1.264,1.236 1.896,3.162 1.896,5.777l0,14.884l-3.417,0l0,-14.884c0,-1.641 -0.448,-2.813 -1.345,-3.519c-0.897,-0.703 -1.955,-1.055 -3.17,-1.055c-1.565,0 -2.775,0.471 -3.636,1.417c-0.859,0.938 -1.287,2.125 -1.287,3.562l0,14.479l-3.476,0l0,-15.231c0,-1.264 -0.41,-2.283 -1.231,-3.055c-0.821,-0.782 -1.878,-1.172 -3.17,-1.172c-0.889,0 -1.718,0.234 -2.49,0.708c-0.764,0.474 -1.381,1.129 -1.855,1.97c-0.464,0.831 -0.693,1.789 -0.693,2.88l0,13.901l-3.417,0Zm39.88,0.522c-1.409,0 -2.688,-0.268 -3.838,-0.798c-1.149,-0.54 -2.062,-1.317 -2.737,-2.332c-0.675,-1.022 -1.012,-2.258 -1.012,-3.705c0,-1.274 0.25,-2.309 0.752,-3.099c0.502,-0.803 1.172,-1.43 2.013,-1.883c0.838,-0.454 1.766,-0.79 2.78,-1.014c1.022,-0.229 2.051,-0.413 3.083,-0.548c1.351,-0.176 2.446,-0.306 3.287,-0.392c0.849,-0.097 1.465,-0.255 1.853,-0.477c0.395,-0.222 0.594,-0.609 0.594,-1.159l0,-0.115c0,-1.43 -0.39,-2.541 -1.172,-3.331c-0.772,-0.793 -1.947,-1.187 -3.519,-1.187c-1.631,0 -2.91,0.357 -3.838,1.07c-0.925,0.716 -1.577,1.478 -1.955,2.288l-3.241,-1.157c0.578,-1.353 1.351,-2.406 2.316,-3.157c0.973,-0.762 2.036,-1.295 3.185,-1.593c1.157,-0.308 2.296,-0.464 3.417,-0.464c0.714,0 1.534,0.087 2.459,0.26c0.938,0.166 1.84,0.507 2.709,1.03c0.879,0.52 1.608,1.307 2.186,2.36c0.578,1.052 0.869,2.462 0.869,4.228l0,14.653l-3.417,0l0,-3.012l-0.173,0c-0.232,0.484 -0.619,0.999 -1.159,1.549c-0.54,0.55 -1.259,1.019 -2.156,1.404c-0.9,0.387 -1.995,0.581 -3.287,0.581Zm0.52,-3.071c1.353,0 2.492,-0.265 3.417,-0.795c0.938,-0.533 1.641,-1.218 2.115,-2.056c0.482,-0.841 0.724,-1.723 0.724,-2.65l0,-3.127c-0.145,0.173 -0.464,0.331 -0.956,0.477c-0.482,0.135 -1.042,0.257 -1.679,0.362c-0.627,0.097 -1.241,0.183 -1.84,0.26c-0.589,0.069 -1.065,0.127 -1.432,0.176c-0.889,0.115 -1.72,0.303 -2.492,0.563c-0.762,0.252 -1.379,0.632 -1.853,1.144c-0.464,0.502 -0.696,1.187 -0.696,2.056c0,1.187 0.441,2.084 1.32,2.694c0.887,0.599 2.011,0.897 3.371,0.897Zm22.787,11.353c-1.651,0 -3.071,-0.214 -4.258,-0.637c-1.187,-0.415 -2.176,-0.966 -2.966,-1.651c-0.782,-0.675 -1.407,-1.399 -1.868,-2.171l2.722,-1.911c0.308,0.405 0.698,0.866 1.172,1.389c0.474,0.53 1.119,0.989 1.939,1.376c0.831,0.395 1.916,0.594 3.259,0.594c1.794,0 3.277,-0.436 4.444,-1.305c1.167,-0.869 1.753,-2.23 1.753,-4.082l0,-4.518l-0.291,0c-0.252,0.405 -0.609,0.907 -1.07,1.506c-0.456,0.589 -1.111,1.116 -1.97,1.58c-0.851,0.454 -1.998,0.68 -3.445,0.68c-1.797,0 -3.41,-0.426 -4.837,-1.274c-1.419,-0.851 -2.543,-2.087 -3.374,-3.708c-0.821,-1.621 -1.231,-3.591 -1.231,-5.907c0,-2.278 0.4,-4.261 1.203,-5.95c0.8,-1.7 1.914,-3.012 3.343,-3.94c1.43,-0.935 3.078,-1.404 4.951,-1.404c1.447,0 2.597,0.242 3.448,0.724c0.859,0.474 1.514,1.014 1.967,1.623c0.464,0.596 0.821,1.091 1.073,1.475l0.347,0l0,-3.532l3.303,0l0,22.876c0,1.911 -0.436,3.466 -1.305,4.663c-0.859,1.205 -2.018,2.09 -3.473,2.648c-1.45,0.571 -3.06,0.856 -4.837,0.856Zm-0.117,-12.222c1.371,0 2.53,-0.313 3.476,-0.94c0.945,-0.627 1.664,-1.532 2.158,-2.709c0.492,-1.177 0.736,-2.586 0.736,-4.228c0,-1.603 -0.24,-3.017 -0.724,-4.243c-0.482,-1.226 -1.195,-2.186 -2.143,-2.88c-0.945,-0.696 -2.113,-1.042 -3.504,-1.042c-1.447,0 -2.653,0.367 -3.619,1.098c-0.956,0.734 -1.674,1.72 -2.158,2.956c-0.471,1.233 -0.708,2.604 -0.708,4.11c0,1.544 0.242,2.91 0.724,4.098c0.492,1.177 1.216,2.105 2.171,2.78c0.966,0.665 2.163,0.999 3.591,0.999Zm13.886,3.417l0,-22.239l3.417,0l0,22.239l-3.417,0Zm1.738,-25.947c-0.668,0 -1.241,-0.227 -1.723,-0.68c-0.474,-0.454 -0.711,-0.999 -0.711,-1.636c0,-0.637 0.237,-1.182 0.711,-1.636c0.482,-0.454 1.055,-0.68 1.723,-0.68c0.665,0 1.236,0.227 1.707,0.68c0.484,0.454 0.724,0.999 0.724,1.636c0,0.637 -0.24,1.182 -0.724,1.636c-0.471,0.454 -1.042,0.68 -1.707,0.68Zm9.253,12.568l0,13.378l-3.417,0l0,-22.239l3.303,0l0,3.473l0.291,0c0.52,-1.129 1.312,-2.036 2.372,-2.722c1.063,-0.696 2.434,-1.042 4.113,-1.042c1.506,0 2.823,0.308 3.952,0.928c1.129,0.606 2.008,1.534 2.635,2.78c0.627,1.233 0.943,2.798 0.943,4.691l0,14.13l-3.417,0l0,-13.901c0,-1.746 -0.454,-3.106 -1.361,-4.082c-0.907,-0.984 -2.153,-1.475 -3.736,-1.475c-1.091,0 -2.067,0.234 -2.925,0.708c-0.849,0.474 -1.521,1.162 -2.013,2.072c-0.492,0.907 -0.739,2.005 -0.739,3.3Zm27.659,13.842c-2.143,0 -3.993,-0.474 -5.545,-1.419c-1.544,-0.956 -2.737,-2.288 -3.578,-3.996c-0.831,-1.718 -1.244,-3.718 -1.244,-5.994c0,-2.278 0.413,-4.286 1.244,-6.024c0.841,-1.748 2.008,-3.109 3.504,-4.082c1.506,-0.986 3.262,-1.478 5.27,-1.478c1.159,0 2.304,0.194 3.433,0.578c1.129,0.387 2.158,1.014 3.083,1.883c0.928,0.859 1.667,1.998 2.217,3.417c0.548,1.419 0.823,3.165 0.823,5.242l0,1.447l-17.142,0l0,-2.953l13.669,0c0,-1.256 -0.252,-2.375 -0.754,-3.359c-0.492,-0.986 -1.195,-1.763 -2.113,-2.332c-0.907,-0.571 -1.98,-0.854 -3.216,-0.854c-1.361,0 -2.538,0.336 -3.532,1.012c-0.984,0.668 -1.743,1.537 -2.273,2.607c-0.53,1.073 -0.798,2.22 -0.798,3.445l0,1.97c0,1.679 0.291,3.104 0.869,4.271c0.589,1.159 1.407,2.041 2.449,2.65c1.042,0.599 2.253,0.897 3.634,0.897c0.897,0 1.707,-0.125 2.431,-0.375c0.734,-0.262 1.366,-0.647 1.898,-1.159c0.53,-0.522 0.94,-1.167 1.231,-1.939l3.3,0.925c-0.347,1.121 -0.933,2.105 -1.751,2.953c-0.821,0.841 -1.835,1.496 -3.043,1.97c-1.205,0.464 -2.561,0.696 -4.067,0.696Zm20.702,0c-1.853,0 -3.489,-0.469 -4.908,-1.404c-1.419,-0.948 -2.528,-2.278 -3.331,-3.998c-0.8,-1.728 -1.2,-3.769 -1.2,-6.124c0,-2.337 0.4,-4.363 1.2,-6.08c0.803,-1.72 1.916,-3.045 3.346,-3.983c1.43,-0.935 3.078,-1.404 4.951,-1.404c1.447,0 2.592,0.242 3.433,0.724c0.849,0.474 1.496,1.014 1.939,1.623c0.454,0.596 0.805,1.091 1.058,1.475l0.288,0l0,-10.945l3.417,0l0,29.652l-3.3,0l0,-3.417l-0.405,0c-0.252,0.405 -0.609,0.917 -1.073,1.534c-0.461,0.609 -1.124,1.154 -1.983,1.636c-0.859,0.474 -2.003,0.711 -3.433,0.711Zm0.464,-3.071c1.371,0 2.53,-0.357 3.476,-1.07c0.945,-0.724 1.664,-1.723 2.156,-2.997c0.494,-1.284 0.739,-2.767 0.739,-4.447c0,-1.659 -0.24,-3.111 -0.724,-4.358c-0.482,-1.254 -1.198,-2.23 -2.143,-2.925c-0.945,-0.703 -2.113,-1.055 -3.504,-1.055c-1.447,0 -2.653,0.369 -3.619,1.114c-0.956,0.734 -1.674,1.733 -2.158,2.997c-0.471,1.256 -0.708,2.665 -0.708,4.228c0,1.585 0.24,3.022 0.724,4.317c0.492,1.282 1.216,2.306 2.171,3.068c0.966,0.754 2.163,1.129 3.591,1.129Z" style="fill:#fff;fill-rule:nonzero;"/></svg>